ply
format ascii 1.0
comment VCGLIB generated
element vertex 52
property float x
property float y
property float z
element face 100
property list uchar int vertex_indices
end_header
-0.3378175 0.9537337 0.4454501 
-0.1721569 1.209987 0.3546956 
-0.6904528 1.546624 0.4020005 
-0.509701 1.556612 0.1118381 
0.4082054 0.9420932 0.3344991 
-0.1135416 1.877173 -0.2701449 
-0.4832798 1.418128 0.04675595 
0.06613636 0.699566 0.5884994 
-0.3359506 0.5541165 -0.1230106 
0.5940554 0.5356961 0.2245547 
0.4428279 0.6377947 0.3030087 
0.1572109 1.265348 -0.09601998 
0.172043 1.027153 0.4546778 
0.3047702 1.19892 0.2742265 
0.03074287 1.327618 0.1898065 
-0.148494 0.497766 0.4930671 
-0.212426 0.8998443 0.5771029 
-0.3543426 0.4860182 0.3972195 
-0.2521522 0.34743 0.5044662 
-0.7132089 1.21373 0.5559337 
-0.6927607 1.79939 -0.5822281 
0.4242999 0.9918296 -0.09711373 
0.1652834 0.7852765 -0.3205335 
0.4133864 0.6149625 -0.08341698 
-0.909629 1.493726 0.1421712 
-0.9069617 1.146656 0.05756723 
-0.07062817 1.052506 -0.2309178 
-0.6778061 1.417956 -0.08952129 
-0.3704626 0.8736613 -0.2419453 
0.1605302 0.3755576 -0.1962179 
-0.5965025 0.5337195 0.0557032 
-0.7585261 0.3534524 -0.009089604 
-0.8289071 0.7821671 -0.1048427 
-0.1401099 1.61951 -0.1135218 
-0.2391083 0.8799941 -0.399033 
-0.5761551 1.10523 -0.1755433 
-0.6613848 1.572208 -0.5447583 
-0.1855104 0.3922542 0.3227342 
-0.7317194 1.063808 0.3811401 
0.1513916 0.3524732 0.4205745 
0.2639544 0.3379407 0.06533443 
-0.4943872 0.6292645 0.3686049 
-0.442096 1.236922 0.274935 
-0.392989 1.25542 -0.02818134 
-0.7770842 1.515568 -0.05596384 
-0.9138142 1.184347 0.4837186 
-0.7980173 0.7930321 0.3752642 
-0.6120476 1.533391 -0.003052168 
-0.2172388 0.3577582 -0.2977623 
-0.637036 0.3499674 0.3923794 
-0.3919882 0.3693767 -0.1665224 
0.542099 0.515457 -0.04219401 
3 13 14 1 
3 43 27 47 
3 0 38 46 
3 43 1 14 
3 0 42 38 
3 41 0 46 
3 0 1 42 
3 17 0 41 
3 9 10 40 
3 12 13 1 
3 17 15 0 
3 7 12 16 
3 27 36 47 
3 47 2 3 
3 15 7 16 
3 10 7 39 
3 42 2 19 
3 38 42 19 
3 33 5 3 
3 21 13 4 
3 39 7 15 
3 18 39 15 
3 10 23 21 
3 29 23 40 
3 4 7 10 
3 37 18 50 
3 6 33 3 
3 4 13 12 
3 20 47 36 
3 39 40 10 
3 45 2 24 
3 22 21 23 
3 32 46 25 
3 6 3 2 
3 4 12 7 
3 47 6 43 
3 44 2 47 
3 23 10 9 
3 43 42 1 
3 43 6 42 
3 21 11 13 
3 47 20 44 
3 6 2 42 
3 11 14 13 
3 30 17 41 
3 18 17 49 
3 35 28 32 
3 0 12 1 
3 45 19 2 
3 15 16 0 
3 30 31 49 
3 44 20 36 
3 34 48 28 
3 8 48 50 
3 8 28 48 
3 27 44 36 
3 27 24 44 
3 46 38 25 
3 31 30 8 
3 24 27 25 
3 45 24 25 
3 34 26 22 
3 28 26 34 
3 26 21 22 
3 11 21 26 
3 23 9 51 
3 43 26 35 
3 16 12 0 
3 28 30 32 
3 35 27 43 
3 27 35 25 
3 33 6 47 
3 40 23 51 
3 28 35 26 
3 23 29 22 
3 40 39 37 
3 50 31 8 
3 29 48 22 
3 32 25 35 
3 8 30 28 
3 48 34 22 
3 18 15 17 
3 37 50 29 
3 47 5 33 
3 38 45 25 
3 47 3 5 
3 32 30 46 
3 19 45 38 
3 30 41 46 
3 49 17 30 
3 49 31 50 
3 9 40 51 
3 48 29 50 
3 49 50 18 
3 18 37 39 
3 14 11 43 
3 21 4 10 
3 24 2 44 
3 29 40 37 
3 43 11 26 
